<?xml version="1.0" standalone="no"?>
<!DOCTYPE svg PUBLIC "-//W3C//DTD SVG 20010904//EN"
 "http://www.w3.org/TR/2001/REC-SVG-20010904/DTD/svg10.dtd">
<svg version="1.0" xmlns="http://www.w3.org/2000/svg"
 width="225.000000pt" height="225.000000pt" viewBox="0 0 225.000000 225.000000"
 preserveAspectRatio="xMidYMid meet">
<metadata>
Created by potrace 1.11, written by Peter Selinger 2001-2013
</metadata>
<g transform="translate(0.000000,225.000000) scale(0.100000,-0.100000)"
fill="#000000" stroke="none">
<path d="M1029 2186 c-2 -2 -26 -6 -54 -10 -27 -3 -77 -13 -110 -22 -33 -8
-68 -17 -77 -19 -37 -8 -197 -88 -263 -133 -92 -62 -221 -192 -280 -282 -48
-74 -122 -220 -129 -255 -2 -11 -11 -45 -20 -76 -9 -31 -20 -78 -23 -105 -9
-61 -9 -267 -1 -314 43 -241 132 -419 290 -582 71 -73 160 -148 176 -148 6 0
17 -6 25 -14 37 -37 247 -125 337 -141 19 -3 53 -9 75 -12 68 -12 256 -8 335
6 41 7 79 12 84 11 5 -1 12 3 15 9 4 5 20 12 36 15 40 7 150 55 210 90 219
131 372 311 466 549 12 28 22 59 24 67 2 8 8 33 13 55 40 150 36 415 -8 530
-5 14 -9 29 -8 33 1 4 -6 24 -15 46 -9 21 -17 42 -17 45 0 12 -89 173 -105
191 -8 9 -15 20 -15 24 0 4 -6 13 -12 20 -7 7 -35 39 -62 70 -62 72 -176 164
-261 212 -68 37 -225 107 -225 99 0 -3 -10 -1 -23 4 -13 5 -39 12 -58 15 -19
3 -45 8 -59 11 -29 7 -255 16 -261 11z m196 -111 c98 -12 121 -17 193 -41 175
-58 322 -159 456 -314 73 -85 169 -289 190 -405 27 -147 23 -312 -10 -425 -9
-30 -17 -62 -19 -70 -2 -8 -17 -46 -34 -83 -90 -200 -246 -364 -446 -468 -57
-30 -183 -74 -235 -83 -19 -3 -53 -9 -75 -12 -59 -9 -174 -11 -220 -3 -22 4
-59 10 -82 13 -51 7 -189 52 -220 72 -12 8 -29 14 -38 14 -8 0 -15 5 -15 10 0
6 -5 10 -11 10 -35 0 -223 160 -294 250 -80 102 -168 292 -181 393 -2 18 -8
55 -12 84 -10 58 -9 190 2 243 34 173 78 284 161 405 40 60 148 175 196 210 8
6 30 23 49 37 100 76 304 151 442 164 40 3 74 7 75 8 4 3 68 -2 128 -9z"/>
<path d="M1028 1995 c-2 -2 -23 -6 -48 -10 -287 -41 -551 -253 -666 -534 -54
-135 -74 -326 -50 -481 16 -103 95 -287 153 -362 192 -243 454 -366 748 -353
86 4 102 6 170 22 17 4 32 7 35 8 3 0 34 11 70 25 159 59 324 192 415 334 34
54 100 187 104 211 1 6 6 27 11 47 19 67 24 122 24 223 0 123 -8 178 -40 275
-103 306 -340 514 -669 586 -31 6 -251 14 -257 9z m46 -372 c-1 -148 -2 -271
-3 -275 0 -3 -15 -11 -33 -17 l-32 -11 -192 192 -192 191 41 34 c34 27 198
116 217 118 3 0 25 6 50 12 51 14 73 18 115 21 l30 2 -1 -267z m236 248 c25
-7 52 -15 60 -18 8 -3 21 -7 28 -9 43 -9 222 -120 222 -138 0 -14 -364 -381
-377 -381 -4 0 -21 4 -38 8 l-30 7 2 258 c1 141 2 265 2 274 1 15 9 17 44 14
23 -2 62 -9 87 -15z m-392 -663 l-15 -33 -269 0 -269 1 -3 22 c-5 36 35 181
72 257 18 39 51 93 72 122 l39 52 194 -194 195 -195 -16 -32z m829 369 c68
-91 128 -238 139 -343 5 -44 4 -52 -12 -55 -11 -3 -133 -4 -273 -4 l-254 1
-12 34 -12 35 186 187 c102 103 191 188 196 188 6 -1 24 -20 42 -43z m-567
-347 c35 -19 46 -31 58 -70 21 -64 -6 -118 -72 -145 -37 -15 -43 -15 -82 0
-69 26 -98 96 -66 160 19 39 31 50 67 62 37 13 62 11 95 -7z m-293 -159 c14
-1 24 -11 32 -33 6 -17 10 -33 9 -34 -8 -9 -340 -343 -360 -362 l-25 -22 -40
57 c-80 115 -125 226 -139 346 -2 21 -2 42 0 45 3 5 404 7 523 3z m997 0 c14
-1 0 -105 -25 -178 -26 -81 -68 -161 -117 -226 l-36 -47 -193 193 -193 193 12
32 c7 19 20 32 33 34 16 2 491 1 519 -1z m-831 -158 c9 -3 18 -15 18 -27 5
-84 3 -510 -2 -518 -8 -12 -87 -4 -159 18 -90 26 -212 92 -276 149 -16 14 365
397 386 389 8 -4 23 -9 33 -11z m383 -175 c106 -106 190 -196 188 -200 -17
-27 -203 -132 -254 -143 -8 -2 -33 -10 -55 -17 -22 -8 -62 -14 -89 -14 l-49 1
1 245 c0 135 1 257 1 271 1 22 22 39 60 48 3 1 91 -85 197 -191z"/>
</g>
</svg>
